# xmcd CD database file
#
# Track frame offsets:
#	150
#	16106
#	27927
#	41818
#	57014
#	75173
#	94614
#	111950
#
# Disc length: 1723 seconds
#
# Revision: 1
# Processed by: cddbd v1.5.2PL0 Copyright (c) Steve Scherf et al.
# Submitted via: CDex 1.70
#
DISCID=5006b908
DTITLE=Marketa and Friends - New Country
DYEAR=1900
DGENRE=Country
TTITLE0=Honey Stay With Me (unplugged)
TTITLE1=You're My Sunshine (unplugged)
TTITLE2=I Can Fly (unplugged)
TTITLE3=Homerun (unplugged)
TTITLE4=For George (unplugged)
TTITLE5=One More Chance With You (Nashville Rec.)
TTITLE6=Honey Stay Wiht Me (Nashville Rec.)
TTITLE7=Homerun (Nashville Rec.)
EXTD=
EXTT0=
EXTT1=
EXTT2=
EXTT3=
EXTT4=
EXTT5=
EXTT6=
EXTT7=
PLAYORDER=
